<svg id="Icon_feather-shopping-cart" data-name="Icon feather-shopping-cart" xmlns="http://www.w3.org/2000/svg" width="21.373" height="20" viewBox="0 0 21.373 20">
  <path id="Path_49486" data-name="Path 49486" d="M12.792,29A1.792,1.792,0,1,1,11,30.792,1.794,1.794,0,0,1,12.792,29Z" transform="translate(-5.332 -12.584)" fill="#2a2a2a"/>
  <path id="Path_49487" data-name="Path 49487" d="M29.292,29A1.792,1.792,0,1,1,27.5,30.792,1.794,1.794,0,0,1,29.292,29Z" transform="translate(-11.575 -12.584)" fill="#2a2a2a"/>
  <path id="Path_49488" data-name="Path 49488" d="M18.694,15.765H9.6a2.7,2.7,0,0,1-2.716-2.132L5.328,6.068q-.009-.036-.015-.073L4.525,2.171H2.359A.848.848,0,0,1,1.5,1.335.848.848,0,0,1,2.359.5H5.23a.854.854,0,0,1,.843.671l.795,3.86H22.014a.87.87,0,0,1,.662.3.818.818,0,0,1,.182.689l-1.492,7.6v.006A2.7,2.7,0,0,1,18.694,15.765Zm-9.1-1.671h9.1a1,1,0,0,0,.985-.785l1.3-6.607H7.212l1.36,6.6a1,1,0,0,0,1.006.788Z" transform="translate(-1.5 -0.5)" fill="#2a2a2a"/>
  <path id="Path_49488-2" data-name="Path 49488" d="M10.528,15.53h9.1a1,1,0,0,0,.985-.808l1.3-6.8H8.146l1.36,6.8a1,1,0,0,0,1.006.811Z" transform="translate(-2.434 -1.763)" fill="#fff"/>
</svg>
